# xmcd
#
# Track frame offsets:
#	150
#	23511
#	41202
#	67204
#	87863
#	115813
#	138578
#	156707
#	180412
#	199249
#
# Disc length: 2988 seconds
#
# Revision: 1
# Processed by: cddbd v1.4PL0 Copyright (c) Steve Scherf et al.
# Submitted via: CDmax 1.8
#
DISCID=8f0baa0a
DTITLE=Red Elephant - ...More Sounds From Spaghetti Westerns
DYEAR=1900
DGENRE=Blues
TTITLE0=Ironsides
TTITLE1=Mean Clean
TTITLE2=Reaching For Shiva
TTITLE3=Using St. Francis
TTITLE4=Waxman
TTITLE5=Half in the Bag
TTITLE6=Still Life
TTITLE7=100 Miles
TTITLE8=Mad Hatter
TTITLE9=Big Rig
EXTD=
EXTT0=
EXTT1=
EXTT2=
EXTT3=
EXTT4=
EXTT5=
EXTT6=
EXTT7=
EXTT8=
EXTT9=
PLAYORDER=
